<mxfile host="app.diagrams.net" modified="2023-12-10T12:26:58.108Z" agent="Mozilla/5.0 (Windows NT 10.0; Win64; x64) AppleWebKit/537.36 (KHTML, like Gecko) Chrome/120.0.0.0 Safari/537.36" version="22.1.7" etag="oeVfEvwz-jWozwSXjHCE" type="github">
  <diagram name="Pagina-1" id="cfY-6Xr55Le8a_SlcKx8">
    <mxGraphModel>
      <root>
        <mxCell id="0" />
        <mxCell id="1" parent="0" />
      </root>
    </mxGraphModel>
  </diagram>
</mxfile>
